<svg width="74" height="74" xmlns="http://www.w3.org/2000/svg" xmlns:xlink="http://www.w3.org/1999/xlink" xml:space="preserve" overflow="hidden"><g transform="translate(-862 -62)"><g><g><g><g><path d="M911 85.5C911 92.1274 905.627 97.5 899 97.5 892.373 97.5 887 92.1274 887 85.5 887 78.8726 892.373 73.5 899 73.5 905.627 73.5 911 78.8726 911 85.5Z" fill="#000000" fill-rule="nonzero" fill-opacity="1"/><path d="M923 124.5 923 112.5C923 110.7 922.1 108.9 920.6 107.7 917.3 105 913.1 103.2 908.9 102 905.9 101.1 902.6 100.5 899 100.5 895.7 100.5 892.4 101.1 889.1 102 884.9 103.2 880.7 105.3 877.4 107.7 875.9 108.9 875 110.7 875 112.5L875 124.5 923 124.5Z" fill="#000000" fill-rule="nonzero" fill-opacity="1"/></g></g></g></g></g></svg>